<svg width="10" height="12" viewBox="0 0 10 12" fill="none" xmlns="http://www.w3.org/2000/svg">
<path d="M10 0.351556C10 0.234256 9.94091 0.124666 9.84249 0.0594188C9.74404 -0.00585208 9.61923 -0.0181797 9.50971 0.0265607L2.89472 2.72763C2.76179 2.78188 2.67506 2.91022 2.67506 3.05262V5.3731C2.67504 5.37418 2.67506 5.37528 2.67506 5.37636V9.02088C2.54684 8.9409 2.4059 8.87947 2.25536 8.83953C1.86222 8.73522 1.45154 8.78874 1.09905 8.99032L0.761615 9.18323C0.0339435 9.5993 -0.216265 10.5241 0.203857 11.2448C0.407375 11.5938 0.735985 11.8436 1.12915 11.9479C1.26045 11.9828 1.39366 12 1.52601 12C1.79004 12 2.05066 11.9314 2.28544 11.7972L2.62288 11.6043L2.6229 11.6042C3.0506 11.3597 3.31309 10.9393 3.37173 10.488C3.38016 10.458 3.38503 5.61278 3.38503 5.61278L9.29008 3.20142V6.31984C9.16186 6.23985 9.02091 6.17843 8.87038 6.13849C8.47721 6.03415 8.06656 6.0877 7.71407 6.28926L7.37663 6.48219C6.64896 6.89826 6.39875 7.82306 6.81887 8.54374C7.02239 8.89285 7.35098 9.14257 7.74417 9.24688C7.87544 9.28171 8.00865 9.29896 8.14103 9.29896C8.40506 9.29896 8.6657 9.23036 8.90048 9.09612L9.2379 8.90318C9.73358 8.61977 10.0074 8.10027 9.99905 7.57004C9.99936 7.56367 10 0.351556 10 0.351556Z" fill="url(#paint0_linear_805_433)"/>
<defs>
<linearGradient id="paint0_linear_805_433" x1="-0.181159" y1="7.99999" x2="10.1812" y2="7.99999" gradientUnits="userSpaceOnUse">
<stop stop-color="#F6E226"/>
<stop offset="1" stop-color="#E53262"/>
</linearGradient>
</defs>
</svg>
